<?xml version="1.0" standalone="no"?>
<!DOCTYPE svg PUBLIC "-//W3C//DTD SVG 20010904//EN"
 "http://www.w3.org/TR/2001/REC-SVG-20010904/DTD/svg10.dtd">
<svg version="1.0" xmlns="http://www.w3.org/2000/svg"
 width="800.000000pt" height="800.000000pt" viewBox="0 0 800.000000 800.000000"
 preserveAspectRatio="xMidYMid meet">

<g transform="translate(0.000000,800.000000) scale(0.100000,-0.100000)"
fill="#000000" stroke="none">
<path d="M3910 7704 c-77 -17 -251 -51 -300 -59 -19 -3 -66 -12 -105 -20 -38
-8 -119 -24 -180 -35 -105 -19 -301 -56 -450 -85 -38 -7 -119 -23 -180 -34
-60 -11 -146 -28 -190 -37 -44 -9 -106 -20 -139 -25 -32 -5 -126 -23 -210 -40
-83 -18 -174 -35 -201 -39 -28 -4 -84 -15 -125 -23 -41 -9 -127 -25 -190 -37
-63 -11 -162 -30 -220 -41 -58 -11 -115 -23 -127 -25 -21 -4 -23 -11 -24 -62
0 -31 -2 -65 -4 -74 -2 -10 0 -18 3 -18 7 0 117 20 357 65 420 78 527 98 595
110 126 23 556 102 705 130 77 15 163 30 190 35 28 5 147 27 265 49 489 92
593 111 620 111 16 0 125 -18 242 -40 117 -22 312 -58 433 -81 121 -22 265
-49 320 -60 113 -21 449 -83 570 -105 116 -20 270 -49 430 -79 191 -36 726
-135 733 -135 1 0 2 36 2 80 l0 80 -29 0 c-16 0 -123 18 -238 40 -114 22 -257
49 -318 61 -60 11 -141 27 -180 35 -70 14 -177 35 -290 55 -33 5 -105 19 -160
30 -259 50 -308 59 -415 79 -63 12 -169 32 -235 45 -66 13 -163 31 -215 40
-52 9 -124 23 -160 31 -36 7 -96 18 -134 24 -38 6 -73 13 -77 15 -8 5 -228 46
-274 50 -16 2 -59 -3 -95 -11z"/>
<path d="M3985 7364 c-5 -2 -117 -22 -247 -44 -131 -22 -344 -58 -473 -80
-522 -89 -712 -121 -970 -165 -148 -25 -335 -57 -415 -71 -80 -13 -172 -29
-205 -34 -33 -5 -136 -23 -230 -39 -93 -17 -174 -31 -178 -31 -5 0 -6 -154 -3
-342 3 -189 8 -534 11 -768 10 -799 19 -1024 51 -1290 127 -1051 512 -2040
1102 -2825 294 -393 660 -758 1057 -1057 107 -80 332 -232 446 -299 l69 -41
73 42 c39 24 146 93 237 155 850 575 1499 1365 1911 2327 79 186 96 231 184
493 158 473 262 987 294 1455 14 190 47 2150 37 2150 -2 0 -84 14 -182 31 -99
17 -215 37 -259 44 -79 13 -895 151 -1175 199 -80 14 -280 48 -445 76 -595
101 -650 110 -665 114 -8 2 -19 2 -25 0z m620 -464 c739 -64 1424 -236 1900
-475 l120 -61 3 -101 c5 -197 -28 -1478 -43 -1638 -58 -639 -222 -1279 -472
-1845 -421 -953 -1080 -1714 -1966 -2270 l-147 -93 -148 93 c-1035 650 -1759
1578 -2152 2760 -149 446 -239 875 -285 1350 -15 146 -48 1450 -43 1643 l3
102 124 61 c489 245 1221 425 1916 474 83 5 170 12 195 14 94 8 871 -3 995
-14z"/>
<path d="M4059 6663 c-9 -34 -10 -53 -2 -74 10 -25 9 -31 -7 -39 -28 -15 -45
-13 -110 15 -60 25 -128 31 -180 15 l-25 -7 28 -12 c16 -6 34 -11 40 -11 7 0
6 -4 -3 -9 -8 -6 -26 -7 -41 -4 -31 6 -99 -13 -99 -28 0 -6 15 -7 35 -3 50 9
179 -25 163 -43 -8 -10 -5 -13 16 -13 33 0 26 -16 -12 -25 -15 -3 -60 -25
-100 -49 -87 -52 -238 -112 -305 -121 -60 -8 -103 -44 -140 -118 -23 -44 -27
-61 -21 -96 4 -24 13 -45 21 -48 7 -3 46 2 86 12 84 20 90 20 95 6 2 -5 -23
-18 -55 -27 -71 -20 -79 -27 -58 -48 22 -22 73 -20 146 4 64 22 102 19 239
-16 30 -8 82 -14 116 -14 53 0 64 -3 69 -19 7 -23 -14 -87 -69 -204 -52 -109
-94 -169 -180 -257 -36 -36 -86 -94 -113 -130 -42 -56 -59 -70 -130 -105 -45
-22 -106 -59 -136 -83 l-54 -42 -114 77 c-63 42 -141 102 -175 133 -85 78
-174 101 -239 62 -34 -21 -145 -193 -240 -372 -33 -63 -84 -153 -113 -200 -34
-55 -56 -104 -61 -135 -5 -28 -18 -71 -29 -97 -25 -57 -45 -161 -37 -188 9
-28 43 -25 111 11 110 57 147 114 109 165 -18 24 -19 54 -1 79 7 11 16 38 20
60 12 66 41 116 111 195 37 41 87 105 111 143 39 57 49 67 74 67 25 0 36 -10
71 -62 23 -35 78 -98 122 -140 83 -79 95 -103 35 -72 -49 25 -194 63 -269 70
-57 6 -72 4 -106 -16 -22 -12 -54 -43 -71 -70 -38 -57 -41 -113 -18 -251 16
-90 46 -298 53 -364 7 -68 12 -84 42 -117 16 -18 42 -66 59 -106 35 -81 87
-165 127 -202 24 -23 28 -24 53 -9 36 19 55 76 56 165 1 87 -16 118 -75 135
-47 15 -69 41 -69 84 0 17 -13 62 -29 100 -23 54 -31 92 -36 170 -4 55 -13
123 -20 151 -24 99 16 109 120 33 39 -28 97 -65 130 -81 32 -17 87 -57 122
-91 48 -46 77 -65 125 -81 63 -21 63 -21 138 -133 41 -62 106 -146 144 -189
79 -87 309 -282 436 -369 47 -33 99 -70 115 -83 32 -26 75 -80 75 -94 0 -18
-28 -6 -56 23 -36 38 -153 127 -215 163 -56 32 -59 29 -59 -79 0 -162 68 -354
212 -597 l39 -66 -20 -40 c-18 -36 -25 -40 -69 -46 -53 -7 -449 9 -476 20 -9
3 -51 1 -94 -4 -42 -6 -116 -16 -163 -21 -136 -15 -244 -74 -220 -118 21 -40
193 -102 246 -89 14 4 32 20 40 36 23 44 49 54 101 40 33 -10 54 -10 88 -1
107 27 305 9 530 -49 65 -16 125 -30 133 -30 8 0 25 11 38 25 35 34 32 87 -9
195 -59 151 -69 257 -40 398 19 95 31 122 99 242 30 52 59 116 66 143 12 48
22 59 33 32 9 -25 -12 -106 -45 -165 -106 -196 -124 -260 -116 -415 7 -152 44
-262 148 -443 27 -47 49 -93 49 -102 0 -43 -105 -151 -288 -294 -75 -59 -120
-102 -132 -127 -11 -21 -41 -52 -67 -70 -94 -63 -153 -131 -153 -178 0 -44
220 -51 306 -9 27 12 29 18 29 68 0 53 1 55 39 76 26 15 48 38 62 66 48 95
214 247 357 328 31 18 62 41 68 52 16 29 0 127 -28 176 -75 127 -42 228 106
327 212 142 336 300 358 455 6 42 13 56 27 58 38 8 47 -56 21 -163 -16 -65
-18 -138 -5 -170 6 -17 9 -13 15 20 4 22 16 62 26 88 11 26 19 58 19 71 0 13
6 29 14 35 23 20 39 -22 34 -90 -3 -46 -16 -81 -62 -171 -59 -114 -69 -156
-47 -197 17 -31 27 -26 27 14 0 23 10 49 31 77 100 136 124 177 143 243 26 90
25 144 -1 206 -24 55 -20 72 10 45 29 -26 51 -101 51 -170 0 -61 25 -136 50
-151 9 -6 10 3 4 36 -12 61 -10 96 6 152 13 42 12 55 -2 110 -9 34 -20 70 -23
80 -5 11 -2 17 8 17 37 0 158 73 203 123 105 116 140 261 110 457 -20 126 -22
251 -6 310 6 21 27 63 47 92 66 98 88 169 63 208 -11 18 -10 20 -53 -70 -37
-77 -118 -180 -142 -180 -18 0 -25 23 -25 83 0 62 21 110 84 195 26 35 57 82
68 103 24 46 36 129 20 129 -6 0 -36 -38 -67 -84 -48 -73 -177 -206 -200 -206
-14 0 3 124 24 181 27 71 69 135 137 206 106 112 9 67 -112 -52 -116 -114
-146 -180 -152 -331 -4 -92 -1 -124 18 -195 35 -130 49 -215 56 -324 12 -192
-27 -325 -123 -421 -60 -60 -165 -113 -230 -117 l-46 -2 -32 91 c-20 57 -52
120 -86 170 -70 102 -221 254 -329 329 -133 93 -248 234 -311 382 -28 66 -33
90 -34 158 0 44 3 88 7 98 7 16 11 16 55 -7 27 -14 70 -31 97 -37 31 -8 76
-32 120 -66 62 -46 96 -64 96 -49 0 3 -12 18 -27 35 -16 16 -41 46 -58 67 -16
20 -48 45 -70 55 l-40 19 33 0 c38 0 61 -11 114 -52 60 -47 57 -13 -4 46 -40
39 -74 60 -126 80 -40 15 -72 31 -72 35 0 12 169 -35 235 -65 89 -41 180 -33
224 20 18 21 -3 21 -39 1 -14 -8 -44 -14 -68 -15 -38 0 -49 6 -107 60 -35 33
-72 60 -80 60 -28 0 -165 61 -159 71 3 5 21 2 41 -6 23 -10 69 -15 128 -15 61
0 105 -5 130 -16 58 -24 59 -13 3 36 -40 34 -67 48 -117 60 l-66 17 38 7 c32
6 50 2 102 -23 70 -34 155 -43 155 -17 0 8 -13 17 -29 21 -16 3 -49 21 -73 40
-23 19 -62 38 -86 43 -47 11 -92 37 -92 53 0 12 29 4 82 -22 44 -22 48 -23 48
-6 0 6 -16 22 -35 35 -38 24 -47 47 -15 37 56 -18 148 -66 169 -89 21 -23 51
-35 51 -22 0 8 -62 100 -84 124 -12 13 -41 34 -66 47 -25 13 -55 37 -68 54
-13 18 -39 39 -58 48 -35 17 -41 27 -24 38 18 11 154 -37 185 -65 57 -52 135
-76 173 -51 17 11 2 22 -61 45 -43 16 -51 25 -74 73 -22 45 -38 63 -99 104
-67 45 -103 83 -91 96 3 2 40 -11 84 -30 43 -19 92 -37 108 -41 17 -4 42 -19
56 -33 16 -14 43 -27 68 -30 53 -7 54 10 2 37 -22 11 -42 28 -45 37 -3 10 -22
29 -42 42 -19 14 -42 37 -50 53 -18 35 -79 76 -147 98 -28 9 -52 21 -52 26 0
20 56 14 104 -11 28 -15 76 -33 108 -40 32 -7 72 -17 88 -22 33 -11 80 1 70
17 -3 5 -15 10 -27 10 -11 0 -32 8 -46 19 -15 10 -45 24 -67 32 -38 12 -135
93 -135 112 0 5 17 -4 38 -19 34 -27 43 -29 127 -29 70 0 97 -4 118 -18 15 -9
27 -22 27 -27 0 -6 5 -10 10 -10 19 0 10 26 -17 53 -36 34 -105 63 -170 72
-42 5 -57 13 -85 45 -19 21 -58 50 -86 64 -52 27 -67 46 -34 46 9 0 53 -12 97
-26 62 -20 93 -24 135 -20 45 4 65 0 113 -21 95 -43 85 -15 -23 62 -20 14 -57
28 -85 31 -30 4 -71 20 -102 40 -29 18 -73 39 -98 47 -25 7 -46 17 -46 22 0 6
27 19 61 30 51 16 66 17 92 7 45 -17 57 0 24 31 -24 23 -36 25 -141 28 l-114
4 -43 41 c-55 54 -77 64 -131 64 -36 0 -48 5 -60 24 -9 13 -49 51 -90 84 l-75
60 -13 -45z m286 -203 c17 -19 17 -20 1 -20 -25 0 -58 19 -51 31 10 15 31 10
50 -11z m-323 -107 c10 -9 18 -19 18 -23 0 -10 -69 23 -70 33 0 13 33 7 52
-10z m373 -3 c17 -19 17 -20 1 -20 -25 0 -58 19 -51 31 10 15 31 10 50 -11z
m-600 -43 c-22 -33 -90 -65 -156 -72 l-54 -6 63 25 c35 13 84 37 110 53 26 17
48 29 50 27 2 -1 -4 -14 -13 -27z m205 3 c18 -18 29 -80 14 -80 -3 0 -19 11
-36 25 -21 18 -36 23 -54 19 -32 -8 -33 19 -2 40 30 21 54 20 78 -4z m463 -80
c15 0 27 -5 27 -10 0 -6 -12 -9 -27 -8 -16 1 -43 -6 -62 -16 -38 -20 -57 -10
-46 24 6 19 12 21 44 16 20 -3 48 -6 64 -6z m-1045 -110 c2 -12 -31 -39 -70
-58 -14 -7 -8 33 8 56 18 26 57 27 62 2z m1042 -15 c7 -9 11 -18 8 -20 -8 -9
-68 17 -62 26 8 14 40 11 54 -6z m-447 -55 c-39 -51 -63 -64 -104 -58 -22 3
-20 6 16 25 22 12 56 35 75 52 51 44 55 38 13 -19z m-413 0 c0 -12 -28 -25
-36 -17 -9 9 6 27 22 27 8 0 14 -5 14 -10z m524 -60 c-11 -10 -32 -20 -49 -24
-26 -5 -28 -4 -11 7 10 6 31 22 45 34 30 25 43 10 15 -17z m340 24 c25 -24 19
-33 -15 -24 -38 11 -43 15 -34 29 9 16 31 13 49 -5z m-303 -63 c-13 -24 -44
-34 -92 -29 -33 3 -32 4 23 21 31 9 60 22 63 28 12 19 17 1 6 -20z m313 -27
c24 -24 19 -35 -11 -28 -34 8 -55 23 -47 35 8 14 41 10 58 -7z m-2 -111 c26
-24 22 -36 -9 -28 -34 8 -55 24 -47 36 8 14 36 10 56 -8z m-342 -116 c0 -54
-33 -146 -75 -207 -43 -64 -135 -163 -135 -146 0 5 23 45 51 88 51 80 92 162
124 251 17 48 35 55 35 14z m348 6 c22 -23 24 -28 10 -31 -9 -2 -33 4 -55 13
-36 16 -37 17 -19 31 27 19 33 18 64 -13z m-9 -112 l16 -24 -34 6 c-45 9 -67
27 -49 39 21 13 50 5 67 -21z m-19 -86 c7 -9 11 -18 8 -20 -8 -9 -68 17 -62
26 8 14 40 11 54 -6z m-20 -90 c10 -12 10 -15 -3 -15 -25 0 -47 11 -41 21 8
14 30 11 44 -6z m-20 -86 c0 -11 -27 -12 -34 0 -3 4 -3 11 0 14 8 8 34 -3 34
-14z m-1555 -44 c0 -5 -15 -11 -32 -13 -32 -3 -45 11 -20 22 19 8 52 2 52 -9z
m1525 -15 c8 -5 11 -12 8 -16 -10 -9 -38 3 -38 16 0 12 10 13 30 0z m-20 -85
c14 -16 10 -18 -14 -9 -9 3 -16 10 -16 15 0 14 16 11 30 -6z m-551 -34 c42
-22 72 -51 51 -51 -6 0 -37 7 -68 16 -55 16 -154 15 -196 -1 -14 -6 -17 -4
-15 10 9 43 160 60 228 26z m-1178 -100 c-46 -67 -61 -81 -61 -54 0 20 66 134
84 145 28 18 14 -36 -23 -91z m1699 59 c0 -5 -4 -10 -9 -10 -6 0 -13 5 -16 10
-3 6 1 10 9 10 9 0 16 -4 16 -10z m-1330 -135 c0 -8 -4 -15 -9 -15 -16 0 -61
65 -61 86 0 15 7 12 35 -18 19 -21 35 -45 35 -53z m1305 65 c3 -5 -1 -10 -9
-10 -8 0 -18 5 -21 10 -3 6 1 10 9 10 8 0 18 -4 21 -10z m-1015 -74 c0 -11
-123 -187 -127 -183 -7 8 58 130 85 160 23 24 42 35 42 23z m-630 -195 c-10
-20 -30 -29 -30 -13 0 4 8 18 17 32 19 27 30 12 13 -19z m-265 -84 c-9 -35
-35 -57 -35 -30 0 20 29 67 37 60 2 -3 1 -16 -2 -30z m1779 -80 c12 -97 74
-205 185 -319 75 -79 65 -88 -21 -21 -100 79 -178 204 -199 321 -11 55 -7 72
15 72 9 0 16 -19 20 -53z m-1241 -6 c71 -32 116 -66 104 -78 -5 -4 -32 5 -60
21 -29 16 -69 38 -89 48 -36 19 -50 38 -28 38 6 0 38 -13 73 -29z m-285 -168
c6 -43 14 -88 18 -100 3 -13 2 -23 -3 -23 -15 0 -42 70 -44 110 -4 114 12 121
29 13z m-318 5 c0 -13 -4 -29 -9 -37 -13 -20 -24 4 -17 35 8 30 26 32 26 2z
m1131 -180 c8 -7 48 -51 89 -98 40 -47 137 -149 214 -227 77 -79 137 -143 132
-143 -12 0 -99 63 -188 137 -104 86 -278 295 -278 333 0 14 13 13 31 -2z
m2098 -148 c16 -73 14 -208 -4 -267 -8 -28 -34 -74 -56 -102 -40 -50 -122
-121 -140 -121 -23 0 -3 36 54 99 35 38 72 85 81 105 31 65 48 173 40 258 -8
90 8 108 25 28z m-1124 -179 c3 -5 -14 -22 -37 -38 -27 -18 -46 -40 -53 -63
-15 -46 -29 -44 -33 3 -3 32 2 43 31 72 34 34 79 46 92 26z m-1567 -125 c5
-23 -25 -20 -38 3 -5 11 -10 25 -10 32 0 17 44 -14 48 -35z m2082 -287 c19
-34 -13 -169 -40 -169 -10 0 -5 142 6 178 5 18 22 14 34 -9z m-670 -268 c0 -4
-5 -22 -11 -39 -6 -17 -11 -57 -12 -89 -2 -63 -17 -73 -30 -21 -12 46 -3 115
18 138 19 21 35 26 35 11z m-160 -430 c0 -10 -30 -24 -37 -17 -3 3 -2 9 2 15
8 13 35 15 35 2z m-593 -47 c-3 -3 -12 -4 -19 -1 -8 3 -5 6 6 6 11 1 17 -2 13
-5z m331 -7 c36 1 52 -2 49 -10 -3 -8 -41 -12 -120 -12 -99 0 -119 3 -134 18
-17 18 -15 18 67 10 47 -4 109 -7 138 -6z m-695 -28 c-13 -13 -43 -5 -43 10 0
13 33 20 45 9 5 -5 5 -12 -2 -19z m1377 -288 c0 -12 -20 -25 -27 -18 -7 7 6
27 18 27 5 0 9 -4 9 -9z m-160 -70 c0 -11 -179 -181 -191 -181 -21 0 -4 21 80
103 82 80 111 101 111 78z m-310 -261 c0 -9 -31 -30 -45 -30 -3 0 -1 9 5 20
11 20 40 28 40 10z m-214 -202 c4 -6 0 -16 -9 -23 -10 -7 -17 -17 -17 -23 0
-5 -7 -13 -15 -16 -26 -10 -29 23 -5 50 26 27 35 29 46 12z"/>
<path d="M3925 6664 c-20 -49 -20 -51 18 -74 36 -23 77 -26 77 -7 0 13 -67
117 -75 117 -3 0 -12 -16 -20 -36z"/>
<path d="M5380 2169 c-124 -32 -262 -35 -428 -9 -123 19 -153 20 -209 10 -134
-23 -213 -84 -213 -165 0 -50 22 -80 65 -91 35 -9 116 33 133 69 18 38 9 44
-24 18 -72 -57 -144 14 -74 73 43 36 97 40 224 17 59 -11 110 -21 112 -23 2
-2 -15 -26 -37 -53 -23 -28 -56 -80 -75 -116 -27 -55 -38 -67 -63 -72 -27 -6
-81 -52 -81 -69 0 -12 28 -10 35 2 7 11 55 14 55 3 0 -3 -18 -44 -41 -91 -72
-148 -169 -224 -267 -208 -79 12 -142 86 -142 165 l0 39 47 -1 c41 -2 48 1 62
26 14 24 14 30 1 55 -18 31 -68 42 -105 22 -64 -34 -81 -160 -32 -243 90 -153
288 -168 436 -32 55 50 115 141 142 217 21 56 23 58 58 58 43 1 72 16 101 53
28 35 18 46 -19 24 -34 -20 -91 -23 -91 -4 0 20 67 154 96 192 24 32 31 35 76
35 27 0 81 7 121 16 85 19 239 82 231 95 -6 11 -1 11 -94 -12z"/>
<path d="M3153 2159 c-63 -31 -101 -101 -89 -164 15 -76 126 -157 311 -226 33
-12 75 -37 93 -55 28 -28 32 -38 32 -86 0 -104 -77 -168 -201 -168 -86 0 -127
13 -177 55 -43 37 -65 87 -55 125 5 17 11 19 38 14 26 -4 38 -1 54 15 55 55
-8 133 -78 96 -40 -20 -59 -51 -67 -106 -13 -94 36 -178 129 -224 74 -36 139
-41 227 -20 88 22 145 62 182 130 49 90 32 212 -38 279 -16 15 -67 45 -114 68
-162 77 -185 90 -212 116 -41 38 -37 86 9 111 75 39 222 -29 304 -142 33 -45
44 -35 24 22 -8 23 -17 65 -21 94 -9 78 -10 81 -36 63 -30 -21 -67 -20 -119 4
-59 26 -141 26 -196 -1z"/>
</g>
</svg>
